<svg width="512" height="512" viewBox="0 0 512 512" fill="none" xmlns="http://www.w3.org/2000/svg">
<rect width="512" height="512" rx="12" fill="#C6FF2F"/>
<path d="M351.306 134.919C354.528 134.919 356.142 136.543 356.142 139.79V328.645H421.001C424.223 328.645 425.837 330.268 425.837 333.516V366.401C425.837 369.648 424.223 371.272 421.001 371.272H245.755C242.533 371.272 240.919 369.648 240.919 366.401V333.516C240.919 330.268 242.533 328.645 245.755 328.645H311.019V210.025H245.755C242.533 210.025 240.919 208.401 240.919 205.154V172.268C240.919 169.021 242.533 167.397 245.755 167.397H303.365C308.467 167.397 311.019 164.826 311.019 159.684V139.79C311.019 136.543 312.63 134.919 315.852 134.919H351.306Z" fill="#121212"/>
<path d="M212.387 376.192C212.387 372.913 210.764 371.272 207.513 371.272H91.3601C88.1099 371.272 86.4865 372.913 86.4865 376.192V410.216C86.4865 413.494 88.1099 415.135 91.3601 415.135H207.513C210.764 415.135 212.387 413.494 212.387 410.216V376.192Z" fill="#121212"/>
</svg>
